<svg width="2148" height="1271" viewBox="0 0 2148 1271" fill="none" xmlns="http://www.w3.org/2000/svg">
<mask id="mask0_22_11" style="mask-type:luminance" maskUnits="userSpaceOnUse" x="0" y="0" width="2148" height="1271">
<path d="M2148 0H0V1271H2148V0Z" fill="white"/>
</mask>
<g mask="url(#mask0_22_11)">
<path d="M2148 0H0V1271H2148V0Z" fill="white"/>
<path d="M-17.5 243C61.2006 243 125 306.799 125 385.5C125 464.201 61.2006 528 -17.5 528C-96.2006 528 -160 464.201 -160 385.5C-160 306.799 -96.2006 243 -17.5 243Z" fill="#00AEEF"/>
<path d="M-274.5 1361C26.2191 1361 270 1108.94 270 798C270 487.064 26.2191 235 -274.5 235C-575.219 235 -819 487.064 -819 798C-819 1108.94 -575.219 1361 -274.5 1361Z" fill="#00AEEF" fill-opacity="0.51"/>
<path fill-rule="evenodd" clip-rule="evenodd" d="M1610 -109.289C1612.73 -147.263 1619.34 -184.781 1629.86 -221.239L2007.39 -587.717C2044.94 -597.933 2083.59 -604.354 2122.72 -607L1610 -109.289ZM1812.29 380.827C1828.85 396.084 1846.02 410.341 1863.69 423.594L2671.67 -360.736C2658.02 -377.887 2643.32 -394.549 2627.61 -410.633L1812.29 380.827ZM1988.46 497.256C1967.29 487.732 1946.47 477.012 1926.12 465.104L2714.42 -300.124C2726.7 -280.381 2737.73 -260.172 2747.55 -239.609L1988.46 497.256ZM2064.25 525.812C2089.47 533.56 2115.01 539.716 2140.69 544.273L2795.98 -91.8396C2791.28 -116.764 2784.94 -141.554 2776.97 -166.043L2064.25 525.812ZM2337.79 547.728C2304.27 552.601 2270.22 554.631 2236.05 553.83L2805.82 0.724816C2806.65 33.9077 2804.56 66.9608 2799.54 99.4926L2337.79 547.728ZM2486.88 505.117C2544.74 479.586 2598.54 444.015 2645.61 398.31C2692.7 352.606 2729.34 300.386 2755.64 244.225L2486.88 505.117ZM2573.5 -460.234L1761.19 328.307C1746.37 311.281 1732.63 293.708 1719.95 275.677L2519.29 -500.269C2537.86 -487.967 2555.96 -474.621 2573.5 -460.234ZM2387.81 -567.425C2410.07 -559.07 2432.02 -549.442 2453.52 -538.545L1680.52 211.832C1669.3 190.958 1659.38 169.655 1650.77 148.044L2387.81 -567.425ZM1625.74 70.2265L2307.64 -591.728C2280.65 -598.034 2253.41 -602.554 2226.15 -605.282L1611.77 -8.88501C1614.58 17.5851 1619.23 44.0218 1625.74 70.2265Z" fill="#00AEEF"/>
<path d="M1717.19 824L1993.88 948.115L1752.11 1122.5L1717.19 824Z" fill="#00AEEF" fill-opacity="0.53"/>
<path d="M1805.84 941.837L2082.54 1065.95L1840.76 1240.33L1805.84 941.837Z" fill="#00AEEF" fill-opacity="0.5"/>
<path d="M1898.76 1059.3L2175.45 1183.41L1933.68 1357.79L1898.76 1059.3Z" fill="#00AEEF" fill-opacity="0.51"/>
</g>
</svg>
