<svg width="2148" height="1271" viewBox="0 0 2148 1271" fill="none" xmlns="http://www.w3.org/2000/svg">
<mask id="mask0_22_11" style="mask-type:luminance" maskUnits="userSpaceOnUse" x="0" y="0" width="2148" height="1271">
<path d="M2148 0H0V1271H2148V0Z" fill="white"/>
</mask>
<g mask="url(#mask0_22_11)">
<path d="M2148 0H0V1271H2148V0Z" fill="white"/>
<path d="M-17.5 243C61.2006 243 125 306.799 125 385.5C125 464.201 61.2006 528 -17.5 528C-96.2006 528 -160 464.201 -160 385.5C-160 306.799 -96.2006 243 -17.5 243Z" fill="#00AEEF"/>
<path d="M-253.5 1385C33.4119 1385 266 1132.94 266 822C266 511.064 33.4119 259 -253.5 259C-540.412 259 -773 511.064 -773 822C-773 1132.94 -540.412 1385 -253.5 1385Z" fill="#00AEEF" fill-opacity="0.51"/>
<path fill-rule="evenodd" clip-rule="evenodd" d="M1730 61.7941C1731.64 40.1409 1735.61 18.7484 1741.92 -2.03983L1968.57 -211.005C1991.11 -216.83 2014.31 -220.491 2037.8 -222L1730 61.7941ZM1851.44 341.257C1861.39 349.957 1871.69 358.086 1882.3 365.643L2367.35 -81.5806C2359.16 -91.3605 2350.34 -100.861 2340.91 -110.032L1851.44 341.257ZM1957.2 407.645C1944.49 402.214 1931.99 396.102 1919.78 389.312L2393.02 -47.0199C2400.39 -35.7623 2407.02 -24.2393 2412.91 -12.5146L1957.2 407.645ZM2002.7 423.927C2017.84 428.345 2033.18 431.855 2048.59 434.454L2441.98 71.7435C2439.16 57.5318 2435.36 43.3963 2430.57 29.4326L2002.7 423.927ZM2166.92 436.424C2146.8 439.202 2126.36 440.36 2105.84 439.903L2447.89 124.524C2448.39 143.444 2447.13 162.291 2444.12 180.841L2166.92 436.424ZM2256.42 412.127C2291.16 397.569 2323.45 377.287 2351.71 351.226C2379.98 325.165 2401.98 295.39 2417.77 263.367L2256.42 412.127ZM2308.42 -138.314L1820.77 311.31C1811.87 301.602 1803.62 291.582 1796.01 281.301L2275.88 -161.142C2287.03 -154.127 2297.89 -146.518 2308.42 -138.314ZM2196.95 -199.434C2210.31 -194.671 2223.48 -189.181 2236.4 -182.967L1772.33 244.896C1765.6 232.994 1759.64 220.847 1754.47 208.525L2196.95 -199.434ZM1739.45 164.153L2148.82 -213.292C2132.61 -216.888 2116.26 -219.465 2099.89 -221.02L1731.06 119.044C1732.75 134.137 1735.54 149.211 1739.45 164.153Z" fill="#00AEEF"/>
<path d="M1725.64 846L2022.46 961.054L1777.48 1154.79L1725.64 846Z" fill="#00AEEF" fill-opacity="0.53"/>
<path d="M1824.71 964.091L2121.52 1079.14L1876.54 1272.88L1824.71 964.091Z" fill="#00AEEF" fill-opacity="0.5"/>
<path d="M1928.23 1081.57L2225.04 1196.63L1980.06 1390.36L1928.23 1081.57Z" fill="#00AEEF" fill-opacity="0.51"/>
</g>
</svg>
