<svg xmlns="http://www.w3.org/2000/svg" width="2148" height="1271" fill="none" viewBox="0 0 2148 1271">
  <g clip-path="url(#a)">
    <mask id="b" width="2148" height="1271" x="0" y="0" maskUnits="userSpaceOnUse" style="mask-type:luminance">
      <path fill="#fff" d="M2148 0H0v1271h2148V0Z"/>
    </mask>
    <g mask="url(#b)">
      <path fill="#fff" d="M2148 0H0v1271h2148V0Z"/>
      <path fill="#00AEEF" fill-opacity=".2" fill-rule="evenodd" d="M1610-109.289c2.73-37.974 9.34-75.492 19.86-111.95l377.53-366.478c37.55-10.216 76.2-16.637 115.33-19.283L1610-109.289Zm202.29 490.116a662.642 662.642 0 0 0 51.4 42.767l807.98-784.33c-13.65-17.151-28.35-33.813-44.06-49.897l-815.32 791.46Zm176.17 116.429a657.864 657.864 0 0 1-62.34-32.152l788.3-765.228a622.258 622.258 0 0 1 33.13 60.515l-759.09 736.865Zm75.79 28.556a642.782 642.782 0 0 0 76.44 18.461L2795.98-91.84a597.671 597.671 0 0 0-19.01-74.203l-712.72 691.855Zm273.54 21.916c-33.52 4.873-67.57 6.903-101.74 6.102L2805.82.725c.83 33.183-1.26 66.236-6.28 98.768l-461.75 448.235Zm149.09-42.611c57.86-25.531 111.66-61.102 158.73-106.807 47.09-45.704 83.73-97.924 110.03-154.085l-268.76 260.892Zm86.62-965.351-812.31 788.541a647.112 647.112 0 0 1-41.24-52.63l799.34-775.946a661.744 661.744 0 0 1 54.21 40.035Zm-185.69-107.191a652.716 652.716 0 0 1 65.71 28.88l-773 750.377a617.367 617.367 0 0 1-29.75-63.788l737.04-715.469ZM1625.74 70.226l681.9-661.954a637.178 637.178 0 0 0-81.49-13.554L1611.77-8.885a583.717 583.717 0 0 0 13.97 79.112Z" clip-rule="evenodd"/>
      <path fill="#00AEEF" fill-opacity=".2" d="m1717.19 824 276.69 124.115-241.77 174.385-34.92-298.5Z"/>
      <path fill="#00AEEF" fill-opacity=".2" d="m1805.84 941.837 276.7 124.113-241.78 174.38-34.92-298.493Z"/>
      <path fill="#00AEEF" fill-opacity=".2" d="m1898.76 1059.3 276.69 124.11-241.77 174.38-34.92-298.49Z"/>
      <path fill="#00AEEF" fill-opacity=".05" d="M-274.5 1361C26.22 1361 270 1108.94 270 798c0-310.936-243.78-563-544.5-563C-575.219 235-819 487.064-819 798c0 310.94 243.781 563 544.5 563Z"/>
      <path fill="#00AEEF" fill-opacity=".2" d="M-17.5 243C61.2 243 125 306.799 125 385.5S61.2 528-17.5 528-160 464.201-160 385.5-96.2 243-17.5 243Z"/>
    </g>
  </g>
  <defs>
    <clipPath id="a">
      <path fill="#fff" d="M0 0h2148v1271H0z"/>
    </clipPath>
  </defs>
</svg>
